<?xml version="1.0" encoding="UTF-8"?>
<svg id="Layer_2" data-name="Layer 2" xmlns="http://www.w3.org/2000/svg" xmlns:xlink="http://www.w3.org/1999/xlink" viewBox="0 0 533.96 569.5">
  <defs>
    <style>
      .cls-1 {
        stroke-width: 5px;
      }

      .cls-1, .cls-2, .cls-3, .cls-4 {
        fill: #562775;
      }

      .cls-1, .cls-2, .cls-4 {
        stroke: #fff;
        stroke-miterlimit: 10;
      }

      .cls-5 {
        fill: none;
      }

      .cls-5, .cls-6, .cls-3 {
        stroke-width: 0px;
      }

      .cls-7 {
        clip-path: url(#clippath-1);
      }

      .cls-2 {
        stroke-width: .25px;
      }

      .cls-6 {
        fill: #fff;
      }

      .cls-8 {
        clip-path: url(#clippath);
      }

      .cls-4 {
        stroke-width: 2px;
      }
    </style>
    <clipPath id="clippath">
      <rect class="cls-5" y="191.36" width="266.98" height="317.73"/>
    </clipPath>
    <clipPath id="clippath-1">
      <rect class="cls-5" x="266.98" y="191.36" width="266.98" height="317.73"/>
    </clipPath>
  </defs>
  <g id="Layer_1-2" data-name="Layer 1">
    <g>
      <g id="_Mirror_Repeat_" data-name="&amp;lt;Mirror Repeat&amp;gt;">
        <g class="cls-8">
          <path class="cls-1" d="m172.64,306.77s-6.8-23.43-6.25-39.6c.73-21.63,19.41-49.24,23.86-67.59,0,0,5.52,13.9,22.68,21.87,19.98,9.27,28.88,16.77,36.96,31.56,7.36,13.47,22.23,50.08,9.8,70.05-12.43,19.97-28.2,51.57-48.69,31.57-20.5-20-38.36-47.86-38.36-47.86Z"/>
          <path class="cls-1" d="m116.29,382.04s-19.2-15.05-28.2-28.49c-12.03-17.98-13-51.31-20.1-68.8,0,0,12.6,8.06,31.19,4.51,21.63-4.14,33.24-3.25,48.43,4.03,13.84,6.63,47.29,27.67,48.86,51.14s7.23,58.33-21.09,54.06c-28.32-4.27-59.09-16.45-59.09-16.45Z"/>
          <path class="cls-1" d="m218.52,449.56s-48.83-5.24-69.69-70.07c-20.86-64.83,2.79-106.35-44.51-122.64,13.54-6.83,48.35-14.72,114.21,74.63,11.4,14.72,34.52,73.05,34.52,73.05l-5.26,42.57-29.27,2.46Z"/>
          <path class="cls-1" d="m221.52,476.69s-43.9,22.02-96.53-21.2c-52.63-43.22-55.21-90.93-103.81-79.04,7.69-13.07,32.69-38.54,136.42.94,79.67,29.75,87.19,81.38,87.19,81.38l-23.28,17.91Z"/>
          <path class="cls-1" d="m224.32,468.43s-23.48,43.13-91.36,37.68c-67.89-5.46-97.24-43.16-130.35-5.66-1.15-15.12,4.85-50.31,112.56-77.08,17.95-4.92,50.85-9.19,80.7-4.03,29.85,5.16,37.34,21.1,37.34,21.1l-8.89,27.99Z"/>
        </g>
      </g>
      <g id="_Mirror_Repeat_-2" data-name="&amp;lt;Mirror Repeat&amp;gt;">
        <g class="cls-7">
          <path class="cls-1" d="m361.33,306.77s6.8-23.43,6.25-39.6c-.73-21.63-19.41-49.24-23.86-67.59,0,0-5.52,13.9-22.68,21.87-19.98,9.27-28.88,16.77-36.96,31.56-7.36,13.47-22.23,50.08-9.8,70.05,12.43,19.97,28.2,51.57,48.69,31.57,20.5-20,38.36-47.86,38.36-47.86Z"/>
          <path class="cls-1" d="m417.68,382.04s19.2-15.05,28.2-28.49c12.03-17.98,13-51.31,20.1-68.8,0,0-12.6,8.06-31.19,4.51-21.63-4.14-33.24-3.25-48.43,4.03-13.84,6.63-47.29,27.67-48.86,51.14s-7.23,58.33,21.09,54.06c28.32-4.27,59.09-16.45,59.09-16.45Z"/>
          <path class="cls-1" d="m315.44,449.56s48.83-5.24,69.69-70.07c20.86-64.83-2.79-106.35,44.51-122.64-13.54-6.83-48.35-14.72-114.21,74.63-11.4,14.72-34.52,73.05-34.52,73.05l5.26,42.57,29.27,2.46Z"/>
          <path class="cls-1" d="m312.45,476.69s43.9,22.02,96.53-21.2c52.63-43.22,55.21-90.93,103.81-79.04-7.69-13.07-32.69-38.54-136.42.94-79.67,29.75-87.19,81.38-87.19,81.38l23.28,17.91Z"/>
          <path class="cls-1" d="m309.65,468.43s23.48,43.13,91.36,37.68c67.89-5.46,97.24-43.16,130.35-5.66,1.15-15.12-4.85-50.31-112.56-77.08-17.95-4.92-50.85-9.19-80.7-4.03-29.85,5.16-37.34,21.1-37.34,21.1l8.89,27.99Z"/>
        </g>
      </g>
    </g>
    <path class="cls-1" d="m319.84,348.34c-.34-58.49-56.36-135.64-56.36-135.64,0,0-57.44,90.84-53.48,141.93,5.02,64.63,56.34,105.6,56.34,105.6,0,0,53.97-32.53,53.5-111.89Z"/>
    <path class="cls-1" d="m314.06,477.05c-1.87,39.88-39.3,57.23-51.7,84.35-.03.06-.1.06-.13,0-21.81-36.04-51.7-50.77-52.23-86.99-.4-27.43,27.07-59.23,54.5-59.23s50.84,34.45,49.55,61.86Z"/>
    <g>
      <path class="cls-4" d="m258.4,490.53c-20.21,20.07.65-26.6,7.26-30.95-19.34,16.72-17.32,45.19-27.44,64.6-13.28-44.81,18.18-79.24,40.78-113.75,39.17-75.45-55.28-75.51-59.13-140.5-2.92-21.23,26.05,24.38,32.03,26.51,11.35,10.75,24.96,18.8,36.07,29.75,1.02.89.88-.76.19-1.24-8.6-18.07-29.8-28.13-31.74-49.53,6.87-32.53,3-76.94-33.09-88.94-9.92-.11-22.75-8.37-31.22-1.64-12.5,13.98-21,29.92-23.46,48.69,1.27,27.62,7.77,36.78-17.39,57.16-14.72,12.59,19.2,12.98,12.75,24.54-10.2,12.95-1.04,13.73,9.39,20.03,8.49,5.31-3.49,6-7.45,7.15-5.28,2.47.18,6.86,3.33,8.26,7.47,6-4.96,16.99.03,25.17,6.7,12.9,23.19-.36,33.49-1.64,18.64-8.61,53.06-8.94,56.83-33.58,1.63-15.94,21.09,11.3,23.16,17.12,14.45,28.88-9.82,58.7-28.9,77.97-22.6-98.44-75.71-14.2-91.41-61.09-2.09-6.93,1.98-16.01-3.27-21.58-3.68-2.96-4.24-6.49-2.25-10.58,2.39-7.09-8.56-11.21-4.92-19.41,6.63-15.92-23.47-19.18-7.63-35.27,30.38-22.25,8.42-55.03,27.15-85.16,2.32-4.89,2-5.5-3.42-6.09-12.87.45-21.18-10.16-32.65-12.54-11.85-.28-25.64-6.24-29.69-17.34,8.17.38,16.01,8.41,24.49,10.22-11.32-10.69-24.48-33.6-11.15-46.27,1.12,31.9,21.06,56.1,56.6,48.38,2.46-.18,3.23-2.87.79-3.87-34.76-22.04-43.6-66.13-43.45-104.5-.92-3.78,3.05-4.58,3.24-.54,3.78,10.13,4.85,23.22,10.01,31.93,3.53-16.65,1.87-30.02,19.18-41.13,1.28-1.22,2.67.23,1.64,1.55-7.89,10.64-11.05,22.93-12.94,35.73-8.1,23.1,17.67,40.87,34.68,52.18,27.31,13.83-9.03-17.73-9.97-28.45-9.02-18.77-10.83-45.21,10.04-56.64,2.9-1.73,3.92-3.88,3.76-7.16-.64-12.93-1.14-25.86-1.65-38.79.87-13.07,6.16,13.4,7.73,22.3,1.31,7.45.59,16.62,2.76,17.08,3.46.74,22.62-25.48,30.62-40.99,22.66-32.76,15.48-11.11,11.76,11.47-.15,1.25.67.72,1.24.37,5.62-6.37,14.67-8.58,20.08-15.47,9.94-5.81-12.17,24.19-14.96,26.21-29.03,20.49-63.92,29.41-53.42,70.89,17.37,46.71,28.46,13.04,15.35-15.25-2.85-5.6-4.34-11.3-2.2-17.5.21-2.82,3.3-2.67,2.78.3-.98,4.78,6.99,26.9,11.7,17.75,3.45-8.63,10.21-23.29,20.63-22.62-8.07,11.97-16,26.3-15.07,42.13-.44,8.09,2.7,10.89,6.76,2.45,5.47,2.22-1.47,14.21-3.42,18.21-6.97,8.66-1.37,23.21,8.15,26.45,9.96-7.28,7.44-27.15,15.71-35.49,2.76,2.37.57,9.93,6.92,3.54,8.92-9.09,9.53-11.83,2.94-22.67-7.05-10.94-16.18-26.7-8.76-39.08-2.39,17.03,14.69,25.2,17.02,41.16,3.3-20.57-1.58-53.73,23.07-62.02-21.83,36.76-5.85,59.91-33.84,98.33-7.26,14.95-14.86,37.23-1.89,51.06,6.75,6.48,4.88-6.46,5.52-10.15-1.5-14.03,22.76-51.63,14.48-15.85-8.57,32.4,7.49,54.51,11.75,84.43,1.15,9.76.27,21.67,3.75,30.32,11.75-21-7.03-45.34-12.4-66.25l.02.05c-4.2-16.89,31.42,24.1,32.85,28.65,7.59,14.37,19.26,35.44,7.51,50.26-4.86,4.95-9.04,11.17-10.09,18.21,2.53,21.99,22.68,40.51,10.73,64.83,5.66-11.5,8.91-24.57,3.79-36.22-1.55-3.99-.63-6.05,3.55-6.92,8.08.6,16.27-11.66,22.91-4.66,4.76,18.21,1.95,35.32-7.53,51.44-5.72,11.88-18.22,20.45-24.27,30.91,13.88.37,28.93-6.51,39.65-16.05,6.48-2.16,5.77-24.57,10.15-16.23,2.95,2.33,2.47,15.62,7.28,11.07,11.51-16.06,25.56-33.01,23.92-54.02,2.32-18.6,9.6,10.78,5.54,29.03-3,13.49-42.93,63.93-34.6,39.56-11.59,22.93-47.27,27.99-69.67,41.02-41.09,20.14-60.54,76.81-36.34,116.31-27.03-8.89-36.13-56.91-11.99-75.48h-.01"/>
      <path class="cls-4" d="m405.49,217.07c11.84,27.01-1.49,53.24-22.19,71.28-3.97,2.17-1.33,6.04-2.98,9.34-5.76,31.12-77.31,40.07-57.38,11.83,42.74-60.55-43.97-58.38-25.29-161.35,3.69-11.04,3.65,5.76,4.2,9.12,2.87,15.87,10.09,33.94,23.29,42.83-1.74-28.44,13.69-30.91,19.42-54.98,2.43-8.41-3.33-15.9-4.77-22.8,7.34,1.68,10.84,12.53,11.06,19.8-1.09,32.41-27.4,48.67,9.8,72.81,6.62-27.19,24.16-17.56,37.98-37.35,6.76-10.06,9.22-21.57,10.36-33.34.24-1.31-.05-3.25,1.79-3.3,9.67,17.69.06,45.85-18.38,55.7-15.84,7.67-18.45,30.93-12.47,44.47,2.92,1.39,6.33-16.9,8.07-7.26,1.29,4.48-3.96,35.94,5.34,24.85,16.9-15.31,6.32-54.17,12.15-41.66Z"/>
      <path class="cls-3" d="m370.5,192.49c.54-15.18-3.53-29.5-8.21-43.68-4.02-12.18.58-21.83,8.62-30.45,3.52-3.78,8.08-6.25,12.77-8.39.83-.38,1.75-.95,2.56-.05.9,1-.07,1.72-.59,2.41-3.86,5.11-7.65,10.24-10.56,16.01-5.22,10.34-4.76,20.64-.18,30.98.85,1.91,1.77,3.8,2.77,5.64,1.6,2.93,3.29,3.06,5.19.37.9-1.27,1.65-2.84,3.49-2.07,1.77.75,1.44,2.44,1.12,3.96-1.49,7.05-2.99,14.1-4.48,21.15-1.94,3.66-5.58,4.62-9.13,5.69-1.54.47-2.74.01-3.37-1.57Z"/>
      <path class="cls-6" d="m285,324.2c-22.69-16.84-44.25-34.88-61.02-57.96-.69-.95-1.35-2.66-2.84-2.04-1.48.62-.67,2.27-.59,3.46,1.51,22.83,12.72,40.45,29.68,54.94,3.89,3.32,7.87,6.54,11.8,9.8.81.89,1.68,1.71,2.82,2.18h.02c-.32,2.45-2.8.16-3.56,1.64-.51.95-.66,1.95-.56,3.04.65,6.85-2.66,11.88-7.64,16.01-4.35,3.61-9.39,6.06-14.68,7.99-18.95,6.91-38.22,12.88-57.5,18.77-6.84,2.09-12.6-1.84-13.34-9.12-.53-5.25.75-10.25,2.85-14.97,1.48-3.35,1.03-5.57-2.44-6.98-.43-.17-.81-.45-1.22-.69-2.21-1.29-4.82-2.34-4.09-5.69.71-3.22,3.5-3.39,6.01-3.83,1.37-.24,2.78-.23,4.18-.36,1.14-.1,2.58.1,2.96-1.28.41-1.47-1.02-1.93-1.99-2.49-4.54-2.63-9.05-5.32-13.68-7.79-2.78-1.48-3.37-3.19-1.66-5.88,1.75-2.75,3.2-5.7,4.97-8.44,1.62-2.51,1.31-4.15-1.42-5.59-3.92-2.06-7.7-4.38-11.53-6.61-4.78-2.79-5.27-7.34-1.19-11.19,3.05-2.88,6.22-5.64,9.2-8.59,5.4-5.34,9.09-11.78,11.79-18.83.82-2.15,1.25-4.35.41-6.49-5.92-15.14-3.41-29.82,2.44-44.26,4.33-10.68,10.49-20.26,18.2-28.86,2.24-2.5,4.65-3.43,8.04-2.83,8.61,1.52,17.21,3.1,25.8,4.73,6.05,1.15,10.95,3.86,14.77,8.55,11.74,14.39,20.27,30.19,21.15,49.23.24,5.27-.24,10.54-1.82,15.57-5.18,16.43-.08,29.95,11.3,41.89,4.26,4.47,8.27,9.18,12.39,13.79,2.64,2.95,4.66,6.29,6.16,9.94.53.58.58,1.33.1,1.83-.65.68-1.21-.04-1.69-.46-.85-.75-1.59-1.62-2.62-2.14Z"/>
      <path class="cls-2" d="m228.26,228.07c1.34-2.88,3.93-4.49,6.37-6.23.88-.63,1.95-.85,2.93-.12.91.68,1.41,1.69.99,2.76-2.56,6.42.7,10.11,5.93,12.94,1.72.93,2.19,2.34,1.34,4.1-.88,1.81-2.27,1.97-4.08,1.37-5.51-1.84-6.04-1.57-8.41,3.62-2.48,5.96-3.04,11.99-.69,18.13v-.03c.5,1.51.89,3.08,2.14,4.2l-.03-.04q1.1,2.35-.24,2.99c-1.02-.34-1.68-1.02-2.02-2.03-4.75-9.41-5.11-19.79-6.48-29.93-.56-4.13.16-8.08,2.25-11.73Z"/>
      <path class="cls-3" d="m170.24,242.06c-.04-2.14.84-3.61,2.23-4.78,6.39-5.37,13.51-6.3,21.22-3.42.85.32,1.98.59,1.87,1.75-.14,1.4-1.43,1.36-2.44,1.38-4.52.09-8.71,1.07-12.45,3.79-1.44,1.05-2.52,2.37-3.7,3.64-1.1,1.19-1.78,3.55-3.96,2.69-2.19-.87-2.29-3.29-2.77-5.05Z"/>
      <path class="cls-3" d="m184.9,275.14c-1.76.03-3.62,2.18-5.18.32-1.4-1.67.27-3.52.67-5.27.7-3.12,2.43-4.48,5.84-3.74,4.32.94,8.59.41,12.6-1.58,1.47-.73,2.88-1.28,3.83.64,1.1,2.23-.85,2.51-2.13,3.12-1.68.8-3.4,1.49-5.11,2.23-3.37,1.75-6.97,2.95-10.52,4.27Z"/>
      <path class="cls-3" d="m228.26,228.07c-3.6,13.46-.64,26.29,3.74,38.98.31.89.72,1.72.48,2.68-3.03-4.05-3.87-8.89-4.74-13.67-1.19-6.51-2.15-13.06-2.26-19.69-.05-3.04.49-5.99,2.78-8.3Z"/>
      <path class="cls-3" d="m232.64,264.65c-2.32-1.99-1.98-4.98-1.99-7.38-.02-3.66.16-7.58,2.68-10.75-1.73,5.99-2.12,12.02-.69,18.13Z"/>
      <path class="cls-3" d="m184.9,275.14c3.31-1.9,6.81-3.34,10.52-4.27-3.09,2.45-6.67,3.69-10.52,4.27Z"/>
      <path class="cls-3" d="m234.78,268.81c-1.82-.83-2.29-2.36-2.16-4.2.72,1.4,1.44,2.8,2.16,4.2Z"/>
      <path class="cls-3" d="m234.51,271.77c1.43-.89-.2-2.02.24-2.99,1.06.64,1.77,1.57,1.39,2.8-.25.79-1,.79-1.63.19Z"/>
    </g>
  </g>
</svg>