<?xml version="1.0" encoding="UTF-8"?>
<svg id="Layer_2" data-name="Layer 2" xmlns="http://www.w3.org/2000/svg" xmlns:xlink="http://www.w3.org/1999/xlink" viewBox="0 0 96.86 51.83">
  <defs>
    <style>
      .cls-1 {
        fill: #0e0f0f;
      }

      .cls-1, .cls-2, .cls-3, .cls-4, .cls-5, .cls-6, .cls-7, .cls-8, .cls-9 {
        stroke-width: 0px;
      }

      .cls-10 {
        stroke: #231f20;
        stroke-linecap: round;
        stroke-width: .5px;
      }

      .cls-10, .cls-11 {
        fill: #231f20;
      }

      .cls-10, .cls-11, .cls-12 {
        stroke-miterlimit: 10;
      }

      .cls-2 {
        fill: #010101;
      }

      .cls-3 {
        fill: #f8f9fa;
      }

      .cls-11, .cls-12 {
        stroke: #fff;
        stroke-width: .25px;
      }

      .cls-4 {
        fill: none;
      }

      .cls-13 {
        clip-path: url(#clippath-1);
      }

      .cls-5 {
        fill: #161616;
      }

      .cls-6 {
        fill: #0d0d0d;
      }

      .cls-7 {
        fill: #fff;
      }

      .cls-8, .cls-12 {
        fill: #0c0c0c;
      }

      .cls-14 {
        clip-path: url(#clippath);
      }

      .cls-9 {
        fill: #131414;
      }
    </style>
    <clipPath id="clippath">
      <rect class="cls-4" y="18.51" width="20.04" height="23.73"/>
    </clipPath>
    <clipPath id="clippath-1">
      <rect class="cls-4" x="20.17" y="18.51" width="20.04" height="23.73"/>
    </clipPath>
  </defs>
  <g id="Layer_1-2" data-name="Layer 1">
    <g>
      <g id="_Mirror_Repeat_" data-name="&amp;lt;Mirror Repeat&amp;gt;">
        <g class="cls-14">
          <path class="cls-11" d="m12.98,27.02s-.51-1.77-.47-2.99c.06-1.63,1.47-3.72,1.8-5.11,0,0,.42,1.05,1.71,1.65,1.51.7,2.18,1.27,2.79,2.38.56,1.02,1.68,3.78.74,5.29s-2.13,3.9-3.68,2.38-2.9-3.62-2.9-3.62Z"/>
          <path class="cls-11" d="m8.72,32.71s-1.45-1.14-2.13-2.15c-.91-1.36-.98-3.88-1.52-5.2,0,0,.95.61,2.36.34,1.63-.31,2.51-.25,3.66.3,1.05.5,3.57,2.09,3.69,3.86s.55,4.41-1.59,4.08-4.46-1.24-4.46-1.24Z"/>
          <path class="cls-11" d="m16.45,37.81s-3.69-.4-5.27-5.29.21-8.03-3.36-9.27c1.02-.52,3.65-1.11,8.63,5.64.86,1.11,2.61,5.52,2.61,5.52l-.4,3.22-2.21.19Z"/>
          <path class="cls-11" d="m16.67,39.86s-3.32,1.66-7.29-1.6-4.17-6.87-7.84-5.97c.58-.99,2.47-2.91,10.31.07,6.02,2.25,6.59,6.15,6.59,6.15l-1.76,1.35Z"/>
          <path class="cls-11" d="m16.88,39.23s-1.77,3.26-6.9,2.85-7.35-3.26-9.85-.43c-.09-1.14.37-3.8,8.5-5.82,1.36-.37,3.84-.69,6.1-.3s2.82,1.59,2.82,1.59l-.67,2.11Z"/>
        </g>
      </g>
      <g id="_Mirror_Repeat_-2" data-name="&amp;lt;Mirror Repeat&amp;gt;">
        <g class="cls-13">
          <path class="cls-11" d="m27.23,27.02s.51-1.77.47-2.99c-.06-1.63-1.47-3.72-1.8-5.11,0,0-.42,1.05-1.71,1.65-1.51.7-2.18,1.27-2.79,2.38-.56,1.02-1.68,3.78-.74,5.29s2.13,3.9,3.68,2.38,2.9-3.62,2.9-3.62Z"/>
          <path class="cls-11" d="m31.49,32.71s1.45-1.14,2.13-2.15c.91-1.36.98-3.88,1.52-5.2,0,0-.95.61-2.36.34-1.63-.31-2.51-.25-3.66.3-1.05.5-3.57,2.09-3.69,3.86s-.55,4.41,1.59,4.08,4.46-1.24,4.46-1.24Z"/>
          <path class="cls-11" d="m23.77,37.81s3.69-.4,5.27-5.29-.21-8.03,3.36-9.27c-1.02-.52-3.65-1.11-8.63,5.64-.86,1.11-2.61,5.52-2.61,5.52l.4,3.22,2.21.19Z"/>
          <path class="cls-11" d="m23.54,39.86s3.32,1.66,7.29-1.6,4.17-6.87,7.84-5.97c-.58-.99-2.47-2.91-10.31.07-6.02,2.25-6.59,6.15-6.59,6.15l1.76,1.35Z"/>
          <path class="cls-11" d="m23.33,39.23s1.77,3.26,6.9,2.85c5.13-.41,7.35-3.26,9.85-.43.09-1.14-.37-3.8-8.5-5.82-1.36-.37-3.84-.69-6.1-.3s-2.82,1.59-2.82,1.59l.67,2.11Z"/>
        </g>
      </g>
    </g>
    <g>
      <path class="cls-12" d="m19.46,40.9c-1.53,1.52.05-2.01.55-2.34-1.46,1.26-1.31,3.41-2.07,4.88-1-3.39,1.37-5.99,3.08-8.59,2.96-5.7-4.18-5.7-4.47-10.61-.22-1.6,1.97,1.84,2.42,2,.86.81,1.89,1.42,2.73,2.25.08.07.07-.06.01-.09-.65-1.37-2.25-2.13-2.4-3.74.52-2.46.23-5.81-2.5-6.72-.75,0-1.72-.63-2.36-.12-.94,1.06-1.59,2.26-1.77,3.68.1,2.09.59,2.78-1.31,4.32-1.11.95,1.45.98.96,1.85-.77.98-.08,1.04.71,1.51.64.4-.26.45-.56.54-.4.19.01.52.25.62.56.45-.38,1.28,0,1.9.51.97,1.75-.03,2.53-.12,1.41-.65,4.01-.68,4.29-2.54.12-1.2,1.59.85,1.75,1.29,1.09,2.18-.74,4.44-2.18,5.89-1.71-7.44-5.72-1.07-6.91-4.62-.16-.52.15-1.21-.25-1.63-.28-.22-.32-.49-.17-.8.18-.54-.65-.85-.37-1.47.5-1.2-1.77-1.45-.58-2.67,2.3-1.68.64-4.16,2.05-6.43.18-.37.15-.42-.26-.46-.97.03-1.6-.77-2.47-.95-.9-.02-1.94-.47-2.24-1.31.62.03,1.21.64,1.85.77-.86-.81-1.85-2.54-.84-3.5.08,2.41,1.59,4.24,4.28,3.66.19-.01.24-.22.06-.29-2.63-1.67-3.29-5-3.28-7.89-.07-.29.23-.35.24-.04.29.77.37,1.75.76,2.41.27-1.26.14-2.27,1.45-3.11.1-.09.2.02.12.12-.6.8-.83,1.73-.98,2.7-.61,1.74,1.33,3.09,2.62,3.94,2.06,1.04-.68-1.34-.75-2.15-.68-1.42-.82-3.42.76-4.28.22-.13.3-.29.28-.54-.05-.98-.09-1.95-.12-2.93.07-.99.47,1.01.58,1.68.1.56.04,1.26.21,1.29.26.06,1.71-1.92,2.31-3.1,1.71-2.48,1.17-.84.89.87-.01.09.05.05.09.03.42-.48,1.11-.65,1.52-1.17.75-.44-.92,1.83-1.13,1.98-2.19,1.55-4.83,2.22-4.04,5.36,1.31,3.53,2.15.99,1.16-1.15-.22-.42-.33-.85-.17-1.32.02-.21.25-.2.21.02-.07.36.53,2.03.88,1.34.26-.65.77-1.76,1.56-1.71-.61.9-1.21,1.99-1.14,3.18-.03.61.2.82.51.19.41.17-.11,1.07-.26,1.38-.53.65-.1,1.75.62,2,.75-.55.56-2.05,1.19-2.68.21.18.04.75.52.27.67-.69.72-.89.22-1.71-.53-.83-1.22-2.02-.66-2.95-.18,1.29,1.11,1.9,1.29,3.11.25-1.55-.12-4.06,1.74-4.69-1.65,2.78-.44,4.53-2.56,7.43-.55,1.13-1.12,2.81-.14,3.86.51.49.37-.49.42-.77-.11-1.06,1.72-3.9,1.09-1.2-.65,2.45.57,4.12.89,6.38.09.74.02,1.64.28,2.29.89-1.59-.53-3.43-.94-5.01h0c-.32-1.27,2.37,1.82,2.48,2.17.57,1.09,1.46,2.68.57,3.8-.37.37-.68.84-.76,1.38.19,1.66,1.71,3.06.81,4.9.43-.87.67-1.86.29-2.74-.12-.3-.05-.46.27-.52.61.05,1.23-.88,1.73-.35.36,1.38.15,2.67-.57,3.89-.43.9-1.38,1.55-1.83,2.34,1.05.03,2.19-.49,3-1.21.49-.16.44-1.86.77-1.23.22.18.19,1.18.55.84.87-1.21,1.93-2.49,1.81-4.08.18-1.41.73.81.42,2.19-.23,1.02-3.24,4.83-2.61,2.99-.88,1.73-3.57,2.11-5.26,3.1-3.1,1.52-4.57,5.8-2.75,8.79-2.04-.67-2.73-4.3-.91-5.7h0"/>
      <g>
        <path class="cls-8" d="m25.18,28.64c-.59,0-1.01-.17-1.16-.47-.14-.27-.07-.61.22-1.02,1.54-2.18.8-3.23-.22-4.68-1.08-1.54-2.44-3.46-1.71-7.46.08-.25.15-.38.28-.38.2,0,.22.28.26.82,0,.11.01.21.02.26.12.64.49,2.17,1.5,3-.01-1.13.35-1.7.73-2.3.28-.44.57-.9.75-1.62.12-.39-.03-.77-.18-1.13-.07-.19-.15-.37-.18-.54l-.04-.19.19.04c.65.15.92,1.07.93,1.61-.03.8-.25,1.47-.44,2.06-.4,1.21-.7,2.1.98,3.25.31-1.09.89-1.36,1.49-1.65.46-.21.93-.44,1.35-1.05.54-.81.69-1.74.76-2.46.01-.14.03-.36.25-.36h.08s.04.07.04.07c.34.63.4,1.47.15,2.3-.27.91-.87,1.69-1.59,2.07-1.1.53-1.28,2.11-.94,3.06.04-.08.09-.19.12-.27.11-.26.19-.42.33-.42.16,0,.2.21.22.32.03.1.02.33,0,.72-.02.36-.06,1.12.05,1.23,0,0,.05-.03.14-.13.78-.71.75-2.14.74-2.83,0-.35,0-.44.05-.5l.04-.04h.06c.1,0,.16.1.23.25.8,1.83.17,3.9-1.71,5.53-.13.08-.14.15-.14.31,0,.11,0,.24-.06.36-.26,1.44-2.3,2.25-3.61,2.25Z"/>
        <path class="cls-7" d="m25.61,13.08c.55.13.82.95.84,1.5-.08,2.45-2.07,3.68.74,5.5.5-2.05,1.83-1.33,2.87-2.82.51-.76.7-1.63.78-2.52.02-.1,0-.25.14-.25.73,1.34,0,3.46-1.39,4.21-1.2.58-1.39,2.34-.94,3.36,0,0,.02,0,.02,0,.17,0,.35-.77.49-.77.04,0,.07.06.1.21.08.29-.19,2.05.16,2.05.06,0,.14-.05.25-.18,1.1-1,.66-3.33.8-3.33.02,0,.06.06.12.18.89,2.04-.11,4.02-1.68,5.38-.3.16-.1.46-.22.71-.26,1.38-2.21,2.18-3.49,2.18-.9,0-1.47-.4-.84-1.29,3.23-4.57-3.32-4.41-1.91-12.19.07-.2.12-.28.16-.28.12,0,.13.78.16.97.22,1.2.76,2.56,1.76,3.24-.13-2.15,1.03-2.33,1.47-4.15.18-.64-.25-1.2-.36-1.72m-.32-.33l.08.38c.04.19.12.38.19.56.14.36.28.69.18,1.04-.17.72-.46,1.17-.73,1.6-.36.57-.71,1.11-.75,2.09-.83-.83-1.15-2.16-1.26-2.74,0-.04-.01-.14-.02-.24-.04-.56-.06-.93-.39-.93-.24,0-.34.28-.39.45-.74,4.09.62,6.03,1.72,7.59,1.03,1.46,1.71,2.43.22,4.53-.31.45-.39.83-.23,1.15.18.34.63.53,1.27.53,1.34,0,3.43-.84,3.73-2.35.06-.14.06-.27.06-.38,0-.15,0-.16.05-.18h.02s.02-.03.02-.03c1.92-1.67,2.57-3.79,1.74-5.67-.07-.15-.16-.33-.35-.33h-.11l-.08.08c-.1.1-.1.23-.09.59.01.67.04,2.06-.69,2.72-.03-.26,0-.73.01-.98.02-.42.03-.64,0-.78-.01-.09-.07-.39-.34-.39-.21,0-.31.2-.43.46-.19-.9.04-2.13.96-2.58.76-.41,1.38-1.21,1.66-2.15.26-.87.2-1.74-.16-2.4l-.07-.13h-.15c-.15,0-.34.08-.37.42h0s0,.06,0,.06c-.07.71-.21,1.62-.74,2.4-.4.58-.86.79-1.3,1-.57.27-1.16.55-1.5,1.56-1.45-1.04-1.18-1.84-.8-3.01.2-.6.42-1.27.45-2.08-.02-.62-.31-1.58-1.03-1.75l-.38-.09h0Z"/>
      </g>
      <g>
        <path class="cls-6" d="m28.1,18.64c-.13,0-.24-.08-.29-.21.03-1.21-.29-2.29-.62-3.31-.28-.86-.07-1.63.68-2.42.29-.32.67-.51,1-.66.06-.03.11-.05.17-.05h.06l.11.08c.09.1.08.21-.02.32-.31.41-.59.79-.8,1.21-.36.71-.36,1.44-.01,2.23.06.14.13.28.21.42.05.1.09.11.09.11,0,0,.03,0,.09-.09.08-.11.15-.22.3-.22h.02l.09.03c.23.1.18.33.16.44l-.34,1.6c-.18.34-.48.43-.74.51-.07.02-.11.03-.15.03Z"/>
        <path class="cls-7" d="m29.04,12.11s.05,0,.08.04c.07.08,0,.13-.04.18-.29.39-.58.77-.8,1.21-.39.78-.36,1.56-.01,2.34.06.14.13.29.21.43.06.12.13.17.2.17.06,0,.13-.05.2-.15.06-.08.1-.17.19-.17.02,0,.04,0,.07.02.13.06.11.18.08.3-.11.53-.23,1.07-.34,1.6-.15.28-.42.35-.69.43-.03,0-.06.01-.08.01-.08,0-.14-.04-.17-.13.04-1.15-.27-2.23-.62-3.3-.3-.92.04-1.65.65-2.3.27-.29.61-.47.96-.63.04-.02.08-.04.12-.04m0-.25c-.09,0-.16.03-.21.06-.36.17-.75.37-1.06.7-.78.84-1,1.65-.71,2.55.33,1,.65,2.07.61,3.21v.05s.02.05.02.05c.07.18.22.29.41.29.05,0,.1,0,.15-.02.31-.09.65-.2.84-.55l.02-.03v-.03s.11-.47.11-.47l.24-1.13c.02-.11.09-.44-.23-.58-.06-.02-.11-.04-.17-.04-.21,0-.32.16-.38.25,0,0,0,0,0,0-.07-.13-.13-.25-.19-.38-.33-.76-.33-1.45,0-2.13.21-.41.47-.77.77-1.17.21-.25.09-.43.03-.5-.07-.08-.16-.12-.26-.12h0Z"/>
      </g>
      <path class="cls-3" d="m21.47,28.34c-1.71-1.27-3.34-2.64-4.61-4.38-.05-.07-.1-.2-.21-.15-.11.05-.05.17-.04.26.11,1.73.96,3.06,2.24,4.15.29.25.59.49.89.74.06.07.13.13.21.16h0c-.02.18-.21.01-.27.12-.04.07-.05.15-.04.23.05.52-.2.9-.58,1.21-.33.27-.71.46-1.11.6-1.43.52-2.89.97-4.34,1.42-.52.16-.95-.14-1.01-.69-.04-.4.06-.77.21-1.13.11-.25.08-.42-.18-.53-.03-.01-.06-.03-.09-.05-.17-.1-.36-.18-.31-.43.05-.24.26-.26.45-.29.1-.02.21-.02.32-.03.09,0,.19,0,.22-.1.03-.11-.08-.15-.15-.19-.34-.2-.68-.4-1.03-.59-.21-.11-.25-.24-.13-.44.13-.21.24-.43.38-.64.12-.19.1-.31-.11-.42-.3-.16-.58-.33-.87-.5-.36-.21-.4-.55-.09-.85.23-.22.47-.43.69-.65.41-.4.69-.89.89-1.42.06-.16.09-.33.03-.49-.45-1.14-.26-2.25.18-3.34.33-.81.79-1.53,1.38-2.18.17-.19.35-.26.61-.21.65.11,1.3.23,1.95.36.46.09.83.29,1.12.65.89,1.09,1.53,2.28,1.6,3.72.02.4-.02.8-.14,1.18-.39,1.24,0,2.26.85,3.17.32.34.62.69.94,1.04.2.22.35.48.47.75.04.04.04.1,0,.14-.05.05-.09,0-.13-.03-.06-.06-.12-.12-.2-.16Z"/>
      <path class="cls-1" d="m17.18,21.07c.1-.22.3-.34.48-.47.07-.05.15-.06.22,0,.07.05.11.13.07.21-.19.49.05.76.45.98.13.07.17.18.1.31-.07.14-.17.15-.31.1-.42-.14-.46-.12-.64.27-.19.45-.23.91-.05,1.37h0c.04.11.07.23.16.31h0q.08.17-.02.22c-.08-.03-.13-.08-.15-.15-.36-.71-.39-1.49-.49-2.26-.04-.31.01-.61.17-.89Z"/>
      <g>
        <path class="cls-9" d="m13.05,22.65l-.09-.02c-.2-.08-.24-.27-.27-.4l-.02-.1c0-.18.07-.33.21-.46.32-.27.68-.41,1.06-.41.21,0,.44.04.67.13.08.03.24.09.22.26-.02.21-.23.21-.29.22-.37,0-.65.09-.88.26-.08.06-.14.13-.21.2l-.1.12c-.05.08-.13.19-.28.19h-.02Z"/>
        <path class="cls-7" d="m13.95,21.39c.2,0,.41.04.62.12.06.02.15.04.14.13-.01.11-.11.1-.18.1-.34,0-.66.08-.94.29-.11.08-.19.18-.28.28-.07.08-.12.22-.23.22-.02,0-.04,0-.07-.01-.17-.07-.17-.25-.21-.38,0-.16.06-.27.17-.36.31-.26.63-.38.98-.38m0-.25h0c-.41,0-.8.15-1.14.44-.17.15-.26.33-.26.56v.03s0,.03,0,.03v.06c.04.13.1.38.36.49.05.02.11.03.16.03.21,0,.32-.16.38-.25.01-.02.02-.03.03-.05l.05-.05c.07-.07.13-.14.19-.19.21-.16.47-.23.8-.24.35,0,.42-.21.43-.33.01-.12-.03-.29-.29-.39-.26-.1-.5-.14-.73-.14h0Z"/>
      </g>
      <g>
        <path class="cls-5" d="m13.63,24.84c-.08,0-.15-.04-.21-.1-.12-.15-.06-.31-.01-.41.01-.03.03-.06.04-.09.07-.33.28-.39.44-.39.05,0,.1,0,.15.02.09.02.19.03.28.03.2,0,.4-.05.59-.14.06-.03.13-.06.21-.06s.18.03.25.17c.04.08.05.16.02.22-.04.1-.13.14-.2.16-.14.06-.43.19-.43.19-.2.1-.42.18-.64.27l-.16.06-.14.04c-.05.02-.12.05-.19.05Z"/>
        <path class="cls-7" d="m15.11,23.8c.05,0,.1.03.13.1.08.17-.06.19-.16.24-.13.06-.26.11-.39.17-.25.13-.53.22-.79.32-.09,0-.19.08-.28.08-.04,0-.08-.01-.11-.06-.11-.13.02-.27.05-.4.04-.19.14-.3.31-.3.04,0,.08,0,.13.02.1.02.21.03.31.03.22,0,.44-.05.64-.15.05-.03.11-.05.16-.05m0-.25c-.1,0-.19.04-.27.08-.17.08-.35.13-.53.13-.08,0-.17,0-.26-.03-.06-.01-.12-.02-.18-.02-.17,0-.46.06-.56.49,0,.02-.02.05-.03.07-.05.11-.14.33.03.54.1.12.22.15.3.15.1,0,.18-.03.24-.06.02,0,.04-.02.06-.02h.04s.03-.01.03-.01l.15-.06c.22-.08.45-.16.67-.28l.1-.04c.09-.04.18-.08.27-.12.11-.04.25-.1.31-.25.04-.1.03-.21-.03-.32-.1-.21-.27-.24-.36-.24h0Z"/>
      </g>
    </g>
    <g>
      <path class="cls-2" d="m60.17,31.68c.2-.19.39-.39.56-.59.17-.2.32-.42.44-.65.13-.24.22-.49.29-.77.07-.28.11-.59.11-.94,0-.12-.03-.22-.08-.29-.06-.08-.14-.11-.25-.11-.05,0-.11.01-.18.03-.07.02-.13.07-.18.14-.13.15-.29.29-.47.42-.19.13-.39.24-.62.34-.23.1-.46.17-.71.23-.25.06-.5.09-.75.09-.62,0-1.19-.14-1.72-.43-.53-.28-.98-.67-1.36-1.16-.38-.49-.68-1.06-.89-1.7-.22-.65-.32-1.33-.32-2.05,0-.76.14-1.52.41-2.28.27-.76.64-1.44,1.1-2.05.46-.61,1-1.1,1.62-1.47.62-.38,1.29-.56,2-.56.21,0,.43.04.65.12.23.08.45.16.68.26.23.09.46.18.68.26.22.08.43.12.62.12s.43-.01.71-.04c.28-.03.57-.11.86-.25-.2.63-.49,1.16-.87,1.58-.38.42-.78.71-1.2.87-.21-.08-.43-.2-.65-.35-.22-.16-.45-.31-.68-.47-.24-.16-.48-.29-.73-.41-.25-.12-.51-.17-.77-.17-.52,0-.95.13-1.3.38-.35.26-.62.59-.83,1.01-.21.42-.35.89-.44,1.43-.09.54-.13,1.1-.13,1.67s.1,1.06.29,1.54c.19.48.46.89.8,1.23.34.35.75.62,1.22.82.48.2,1,.3,1.57.3.26,0,.51-.05.74-.15.23-.1.43-.23.6-.39.17-.16.3-.34.4-.54.1-.2.14-.4.14-.6,0-.1,0-.21-.02-.34-.01-.13-.03-.24-.06-.35-.03-.11-.08-.2-.14-.28-.07-.08-.15-.11-.25-.11-.14,0-.3.02-.49.06-.19.04-.37.06-.55.06-.2,0-.38-.04-.53-.12-.16-.08-.29-.28-.41-.6.35-.05.66-.13.94-.24.28-.11.54-.22.8-.33.26-.11.53-.21.8-.29.28-.08.59-.13.94-.13.38,0,.66.03.85.09.19.06.37.16.55.3-.18.12-.32.27-.43.44-.11.17-.19.42-.24.74-.06.32-.09.74-.11,1.25-.02.52-.02,1.18-.02,1.99,0,.48-.07.92-.21,1.31-.14.4-.34.74-.6,1.04-.26.3-.57.54-.94.73-.37.19-.77.32-1.22.38Z"/>
      <path class="cls-2" d="m71.61,21.9c.08.14.14.32.17.54.03.22.05.44.05.66,0,.31-.04.7-.13,1.16-.09.46-.2.94-.35,1.44-.15.5-.31.99-.49,1.48-.18.49-.37.91-.56,1.27-.29.55-.6,1.12-.92,1.7-.32.58-.66,1.11-1.03,1.59-.37.48-.76.88-1.17,1.19-.42.31-.85.47-1.31.47-.38,0-.69-.06-.92-.19-.23-.13-.39-.25-.48-.38.02-.33.11-.65.27-.95.16-.3.39-.53.69-.68.1.21.24.38.41.51.17.13.33.2.47.2.33,0,.63-.1.9-.29.27-.19.5-.42.7-.68.2-.26.35-.52.45-.79.11-.27.16-.48.16-.64,0-.13-.02-.22-.06-.28-.04-.05-.1-.12-.18-.2-.07-.06-.16-.16-.28-.29-.12-.14-.24-.29-.36-.47-.13-.18-.24-.36-.35-.55-.11-.19-.2-.38-.27-.56-.31-.83-.57-1.5-.78-2-.21-.5-.4-.89-.58-1.16-.18-.27-.35-.45-.53-.55-.18-.1-.4-.15-.65-.17.18-.42.46-.76.83-1.01.37-.25.78-.38,1.23-.39.1.11.2.24.3.4.1.16.2.34.31.56.11.22.21.48.31.77.1.3.21.64.32,1.04.09.35.19.69.3,1.02.11.33.23.63.35.89.12.26.25.47.4.62.15.16.3.23.47.23.1,0,.21-.06.32-.18.12-.12.22-.28.32-.47.1-.19.2-.41.29-.65.1-.24.18-.48.25-.73.07-.25.13-.48.17-.7.04-.22.06-.41.06-.57,0-.18-.04-.33-.11-.44-.08-.11-.18-.2-.3-.26-.13-.07-.27-.11-.44-.13-.17-.02-.35-.03-.54-.03.09-.2.22-.39.39-.56.17-.17.36-.32.57-.44.21-.13.43-.22.67-.29.24-.07.46-.11.67-.11Z"/>
      <path class="cls-2" d="m75.36,21.9c.58,0,1.07.05,1.46.14s.7.25.92.47c.23.22.39.51.48.88.1.37.14.82.14,1.37v2.72c0,.26.1.45.29.58.2.13.44.19.73.19.19,0,.36-.02.51-.06-.11.23-.22.43-.34.59-.12.17-.25.31-.41.42-.16.12-.34.21-.54.29-.21.08-.45.15-.74.2-.09-.42-.22-.71-.4-.86-.18-.16-.39-.23-.65-.23-.18,0-.36.06-.54.17-.18.12-.37.24-.58.38-.21.14-.43.26-.67.38-.24.12-.51.17-.8.17-.26,0-.49-.05-.69-.14-.2-.09-.37-.22-.51-.38-.14-.16-.25-.34-.32-.55-.07-.21-.11-.43-.11-.67,0-.45.11-.83.33-1.14.22-.31.49-.58.82-.8.33-.23.68-.41,1.07-.56.39-.15.74-.28,1.07-.39.33-.12.6-.23.82-.33.22-.11.33-.22.33-.35,0-.2-.06-.38-.18-.53s-.28-.28-.47-.38c-.19-.1-.4-.18-.64-.23-.24-.05-.46-.08-.68-.08-.53,0-.97.08-1.31.25-.35.17-.62.32-.82.46.03-.34.12-.64.26-.89.14-.25.32-.46.53-.62.22-.17.46-.29.74-.36.28-.08.58-.11.89-.11Zm1.79,4.85c0-.26-.01-.48-.03-.65-.02-.18-.04-.32-.06-.43-.18.01-.42.04-.73.08-.31.04-.61.12-.9.23-.3.12-.55.28-.77.5-.22.22-.32.5-.32.85,0,.14,0,.28.02.41.02.13.05.25.11.35.06.11.15.19.26.26.11.07.27.1.47.1.18,0,.39-.04.62-.11.23-.08.44-.18.64-.32.2-.14.36-.32.5-.53.14-.21.2-.45.2-.72Z"/>
      <path class="cls-2" d="m84.53,23.39c-.37,0-.68.05-.94.15-.25.1-.46.23-.61.4-.16.16-.27.36-.33.58-.07.22-.1.45-.1.69v1.66c0,.3.02.54.05.73.04.18.1.33.19.43.09.1.22.17.38.21.16.04.37.05.62.05h.17c.06,0,.12,0,.17-.03-.18.47-.43.8-.76,1.01-.33.21-.64.31-.95.31-.22,0-.42-.04-.6-.13-.18-.08-.33-.2-.46-.34-.13-.14-.22-.3-.29-.49-.07-.19-.11-.38-.11-.58v-3.58c0-.36-.09-.65-.27-.86-.18-.21-.46-.32-.84-.32.17-.39.43-.72.78-.99.35-.27.77-.41,1.25-.41.05.38.18.65.4.81.22.16.43.24.64.24s.4-.05.58-.17c.18-.11.36-.23.55-.36.19-.13.4-.25.63-.36.23-.11.5-.17.8-.17.28,0,.55.07.81.21.26.14.49.32.7.53.21.21.38.45.52.72.14.26.24.52.29.77-.08.23-.14.45-.19.67-.05.22-.08.44-.1.67-.02.23-.03.48-.04.75,0,.26,0,.56,0,.89,0,.24.03.44.09.59s.14.27.23.36c.1.08.21.14.34.18.13.03.27.05.42.05s.31-.02.48-.05c-.11.34-.32.65-.62.92-.31.27-.67.4-1.09.4-.18,0-.36-.04-.53-.11-.18-.07-.33-.17-.47-.3-.14-.13-.24-.28-.32-.46-.08-.18-.12-.37-.12-.58,0-.45,0-.83.03-1.13.02-.3.04-.56.06-.77.02-.22.04-.41.06-.58.02-.17.03-.35.03-.54s-.04-.39-.12-.59c-.08-.21-.19-.39-.32-.56-.14-.17-.29-.3-.48-.41-.18-.11-.38-.17-.59-.17Z"/>
      <path class="cls-2" d="m92.32,21.9c.58,0,1.07.05,1.46.14.39.09.7.25.92.47.23.22.39.51.48.88.1.37.14.82.14,1.37v2.72c0,.26.1.45.29.58.2.13.44.19.73.19.19,0,.36-.02.51-.06-.11.23-.22.43-.34.59-.12.17-.25.31-.41.42-.16.12-.34.21-.54.29-.21.08-.45.15-.74.2-.09-.42-.22-.71-.4-.86-.18-.16-.39-.23-.65-.23-.18,0-.36.06-.54.17-.18.12-.37.24-.58.38-.21.14-.43.26-.67.38-.24.12-.51.17-.8.17-.26,0-.49-.05-.69-.14-.2-.09-.37-.22-.51-.38-.14-.16-.25-.34-.32-.55-.07-.21-.11-.43-.11-.67,0-.45.11-.83.33-1.14.22-.31.49-.58.82-.8.33-.23.68-.41,1.07-.56.39-.15.74-.28,1.07-.39.33-.12.6-.23.82-.33.22-.11.33-.22.33-.35,0-.2-.06-.38-.18-.53s-.28-.28-.47-.38c-.19-.1-.4-.18-.64-.23-.24-.05-.46-.08-.68-.08-.53,0-.97.08-1.31.25-.35.17-.62.32-.82.46.03-.34.12-.64.26-.89.14-.25.32-.46.53-.62.22-.17.46-.29.74-.36.28-.08.58-.11.89-.11Zm1.79,4.85c0-.26-.01-.48-.03-.65-.02-.18-.04-.32-.06-.43-.18.01-.42.04-.73.08-.31.04-.61.12-.9.23-.3.12-.55.28-.77.5-.22.22-.32.5-.32.85,0,.14,0,.28.02.41.01.13.05.25.11.35.06.11.15.19.26.26.11.07.27.1.47.1.18,0,.39-.04.62-.11.23-.08.44-.18.64-.32.2-.14.36-.32.5-.53.14-.21.2-.45.2-.72Z"/>
    </g>
    <line class="cls-10" x1="48.1" y1=".25" x2="48.1" y2="51.58"/>
  </g>
</svg>